<?xml version="1.0" encoding="UTF-8"?>
<svg width="16px" height="16px" viewBox="0 0 16 16" version="1.1" xmlns="http://www.w3.org/2000/svg" xmlns:xlink="http://www.w3.org/1999/xlink">
    <!-- Generator: sketchtool 41 (35326) - http://www.bohemiancoding.com/sketch -->
    <title>AB9BFAED-8015-4D45-8FC3-AB1CC856F0A4</title>
    <desc>Created with sketchtool.</desc>
    <defs></defs>
    <g id="Form-Pages" stroke="none" stroke-width="1" fill="none" fill-rule="evenodd">
        <g id="Offices---add-office-or-edit" transform="translate(-854.000000, -475.000000)">
            <g id="Form" transform="translate(306.000000, 288.000000)">
                <g id="Group-4-Copy" transform="translate(0.000000, 50.000000)">
                    <g id="Form-Copy" transform="translate(9.000000, 14.000000)">
                        <g id="Group-9">
                            <g id="Group-4">
                                <g id="Group-3">
                                    <g transform="translate(447.000000, 0.000000)" id="Group-12">
                                        <g transform="translate(91.000000, 0.000000)">
                                            <g id="Group-8" transform="translate(1.000000, 120.000000)">
                                                <g id="Form-Elements---Checkbox-Checked" transform="translate(0.000000, 3.000000)">
                                                    <g>
                                                        <rect id="Rectangle-256" fill="#2888D1" x="0" y="0" width="16" height="16" rx="2"></rect>
                                                        <path d="M4,7 L5,7 L5,10 L4,10 L4,7 Z M5,8 L6,8 L6,11 L5,11 L5,8 Z M6,9 L7,9 L7,12 L6,12 L6,9 Z M7,8 L8,8 L8,11 L7,11 L7,8 Z M8,7 L9,7 L9,10 L8,10 L8,7 Z M9,6 L10,6 L10,9 L9,9 L9,6 Z M10,5 L11,5 L11,8 L10,8 L10,5 Z" id="Rectangle-1034" fill="#FFFFFF"></path>
                                                    </g>
                                                </g>
                                            </g>
                                        </g>
                                    </g>
                                </g>
                            </g>
                        </g>
                    </g>
                </g>
            </g>
        </g>
    </g>
</svg>