<?xml version="1.0" encoding="UTF-8"?>
<svg width="123px" height="33px" viewBox="0 0 123 33" version="1.1" xmlns="http://www.w3.org/2000/svg" xmlns:xlink="http://www.w3.org/1999/xlink">
    <!-- Generator: sketchtool 41 (35326) - http://www.bohemiancoding.com/sketch -->
    <title>DDB5732A-5D06-4D50-BBBD-90A6D93A137F</title>
    <desc>Created with sketchtool.</desc>
    <defs>
        <polygon id="path-1" points="34.253149 33 0 33 0 4.5e-05 34.253149 4.5e-05 34.253149 33"></polygon>
    </defs>
    <g id="Symbols" stroke="none" stroke-width="1" fill="none" fill-rule="evenodd">
        <g id="PB-logo" transform="translate(0.000000, 7.000000)">
            <g id="SPD-U" transform="translate(0.000000, -7.000000)">
                <path d="M18.3830973,13.182915 C18.1928366,12.994965 17.9683227,12.844515 17.709867,12.731715 C17.4512556,12.618915 17.1756733,12.562515 16.8829644,12.562515 L14.1754075,12.562515 L14.1754075,16.672665 L16.8829644,16.672665 C17.170691,16.672665 17.4426923,16.617465 17.6988125,16.507065 C17.9549328,16.396665 18.179291,16.246065 18.3721986,16.055715 C18.5647948,15.865515 18.7172214,15.646965 18.8294784,15.400215 C18.9415796,15.153465 18.9977859,14.891415 18.9977859,14.614065 C18.9977859,14.341515 18.9429809,14.081865 18.8332151,13.835115 C18.7234492,13.588365 18.5733581,13.370865 18.3830973,13.182915" id="Fill-1" fill="#FEFEFE"></path>
                <path d="M28.6826191,13.641195 C28.2996065,13.298145 27.8532254,13.032495 27.3434761,12.844545 C26.8337267,12.656595 26.2982875,12.562545 25.7373141,12.562545 L23.3883254,12.562545 L23.3883254,20.627745 L25.824971,20.627745 C26.2249546,20.627745 26.6043862,20.576145 26.9629546,20.472495 C27.3215229,20.369295 27.6531558,20.224695 27.9581647,20.039145 C28.2630178,19.853445 28.5373546,19.632645 28.7813305,19.376445 C29.0253065,19.120245 29.2325381,18.840645 29.4033368,18.537345 C29.5741356,18.234345 29.7058546,17.911095 29.7984938,17.568045 C29.891133,17.224995 29.9376862,16.874895 29.9376862,16.517595 C29.9376862,15.920745 29.8241837,15.377895 29.5973343,14.889045 C29.3704849,14.400345 29.0654761,13.984395 28.6826191,13.641195" id="Fill-3" fill="#FEFEFE"></path>
                <g id="Group-7">
                    <mask id="mask-2" fill="white">
                        <use xlink:href="#path-1"></use>
                    </mask>
                    <g id="Clip-6"></g>
                    <path d="M30.9877325,17.991045 C30.858349,18.437595 30.6766515,18.853545 30.4426401,19.238895 C30.2083173,19.624245 29.9254173,19.976895 29.5936287,20.296395 C29.2618401,20.616045 28.8948642,20.888595 28.4923895,21.114195 C28.0899148,21.339795 27.6556781,21.514995 27.1898351,21.639495 C26.7238363,21.763995 26.2396211,21.826245 25.7371895,21.826245 L22.4588503,21.826245 C22.366211,21.826245 22.2869616,21.803895 22.2211022,21.759345 C22.1552427,21.714645 22.1222351,21.635895 22.1222351,21.522945 L22.1222351,11.695395 C22.1222351,11.469795 22.234492,11.356995 22.4588503,11.356995 L25.7371895,11.356995 C26.24943,11.356995 26.7397173,11.419245 27.2080515,11.543895 C27.6763857,11.668395 28.111868,11.843445 28.5143427,12.069045 C28.9168173,12.294645 29.2827034,12.565995 29.6120009,12.883245 C29.9412984,13.200495 30.2217072,13.553145 30.4535389,13.940895 C30.6852148,14.328495 30.8644211,14.746995 30.9913135,15.195645 C31.1182059,15.644595 31.1815743,16.113345 31.1815743,16.602195 C31.1815743,17.081595 31.1169604,17.544495 30.9877325,17.991045 L30.9877325,17.991045 Z M20.0077249,15.872445 C19.8367705,16.264995 19.6015135,16.609245 19.301487,16.905345 C19.0014604,17.201445 18.6477186,17.436495 18.2404173,17.610345 C17.8329604,17.784345 17.3926515,17.871195 16.9196465,17.871195 L14.1755009,17.871195 L14.1755009,21.516045 C14.1755009,21.722895 14.0655794,21.826245 13.8460477,21.826245 L13.2315148,21.826245 C13.0166541,21.826245 12.9093794,21.722895 12.9093794,21.516045 L12.9093794,11.695395 C12.9093794,11.469795 13.0216363,11.356995 13.2459946,11.356995 L16.8829022,11.356995 C17.3610452,11.356995 17.8061806,11.443995 18.2184642,11.617845 C18.630592,11.791695 18.9879148,12.027945 19.2905882,12.326295 C19.5929503,12.624945 19.8306984,12.972645 20.0039882,13.369695 C20.1771224,13.766895 20.2638452,14.186445 20.2638452,14.628195 C20.2638452,15.065295 20.178368,15.480195 20.0077249,15.872445 L20.0077249,15.872445 Z M10.8204034,20.056695 C10.6080338,20.460945 10.3165705,20.803845 9.94585785,21.085995 C9.57514519,21.367995 9.14090848,21.585345 8.64330342,21.738045 C8.14569835,21.890895 7.61150468,21.967245 7.04072241,21.967245 C6.66020089,21.967245 6.28699709,21.929445 5.92111101,21.854445 C5.55522494,21.779295 5.2039743,21.666495 4.86735911,21.516045 C4.53074392,21.365745 4.21483633,21.178695 3.91963633,20.955495 C3.62443633,20.732445 3.35990848,20.475045 3.12574139,20.183595 C3.0475819,20.084745 3.00865785,20.000295 3.00865785,19.929795 C3.00865785,19.849845 3.05256418,19.774695 3.14037684,19.704045 L3.60871101,19.330545 C3.64280848,19.307145 3.68064266,19.288245 3.72221354,19.274145 C3.76362873,19.259895 3.80146291,19.252995 3.83556038,19.252995 C3.86965785,19.252995 3.90266544,19.262445 3.93442747,19.281195 C3.9660338,19.299945 3.99655025,19.322295 4.02582114,19.348095 C4.05509203,19.374045 4.08187177,19.398645 4.10631608,19.422195 C4.13060468,19.445745 4.14773127,19.462095 4.15754013,19.471545 C4.37224519,19.687695 4.61248443,19.876995 4.87841354,20.039145 C5.14418696,20.201145 5.41011608,20.337495 5.67604519,20.447895 C5.94181861,20.558445 6.19793886,20.641695 6.44440595,20.698245 C6.69056165,20.754645 6.9016857,20.782845 7.07731101,20.782845 C7.28220722,20.782845 7.49317557,20.765295 7.71037177,20.729895 C7.92741228,20.694645 8.13947051,20.640795 8.34685785,20.567745 C8.55424519,20.494995 8.7505781,20.403345 8.93601228,20.292795 C9.12144646,20.182545 9.2836819,20.053245 9.42271861,19.905045 C9.56175532,19.756995 9.67152114,19.589145 9.75186038,19.401045 C9.83251101,19.213095 9.87268063,19.006245 9.87268063,18.780645 C9.87268063,18.493995 9.79094013,18.251895 9.62761481,18.054495 C9.4639781,17.857095 9.24460215,17.689095 8.96901987,17.550345 C8.6932819,17.411895 8.3773743,17.293095 8.02129709,17.194395 C7.66521987,17.095695 7.29684266,16.999395 6.91632114,16.905345 C6.31626797,16.754895 5.79063759,16.592745 5.33943,16.418895 C4.88806671,16.245045 4.51252747,16.046445 4.21250089,15.823095 C3.9124743,15.600045 3.68796038,15.349695 3.53927051,15.072345 C3.39042494,14.794995 3.31600215,14.477895 3.31600215,14.120595 C3.31600215,13.692945 3.40490468,13.300395 3.58317684,12.943245 C3.76113759,12.586095 4.01352114,12.278295 4.34048316,12.019695 C4.66728949,11.761245 5.06244646,11.561445 5.52595405,11.420445 C5.98930595,11.279445 6.50652873,11.208945 7.07731101,11.208945 C7.37001987,11.208945 7.67004646,11.241795 7.97739076,11.307645 C8.28473506,11.373495 8.58227051,11.466195 8.87015278,11.586045 C9.15787937,11.706045 9.43361734,11.847045 9.69705532,12.009195 C9.96049329,12.171195 10.1946604,12.351045 10.3995566,12.548445 C10.4629249,12.609645 10.526449,12.675345 10.5898173,12.745845 C10.6531857,12.816345 10.6849477,12.882195 10.6849477,12.943245 C10.6849477,13.013745 10.645868,13.086645 10.5678642,13.161795 L10.1288009,13.570695 C10.0604503,13.636545 9.99459076,13.669395 9.93122241,13.669395 C9.85306291,13.669395 9.76525025,13.622445 9.66778443,13.528395 C9.55070089,13.429695 9.40434646,13.314495 9.22872114,13.182945 C9.05309582,13.051395 8.8530262,12.926745 8.62866797,12.809295 C8.40430975,12.691845 8.15784266,12.591945 7.8895781,12.509745 C7.62115785,12.427545 7.33343127,12.386295 7.02608696,12.386295 C6.61146797,12.386295 6.25523506,12.435645 5.95769962,12.534345 C5.66016418,12.633045 5.41494266,12.763395 5.22234646,12.925545 C5.02943886,13.087845 4.88806671,13.269945 4.79791861,13.471995 C4.70745911,13.674045 4.66246291,13.876245 4.66246291,14.078295 C4.66246291,14.317995 4.73937684,14.525895 4.89289329,14.702145 C5.04672114,14.878545 5.24663506,15.031245 5.49294646,15.160395 C5.73925785,15.289845 6.01748696,15.401295 6.32732241,15.495345 C6.63700215,15.589395 6.95041861,15.678645 7.26757177,15.763245 C7.55545405,15.838395 7.85174392,15.918345 8.15675278,16.002945 C8.46145025,16.087545 8.75789582,16.182645 9.0457781,16.288395 C9.33350468,16.394145 9.60441608,16.517595 9.85804519,16.658595 C10.1116743,16.799595 10.3336971,16.966395 10.5239578,17.159145 C10.7142186,17.351895 10.8641541,17.574045 10.9740756,17.825445 C11.0838414,18.076845 11.1386465,18.366945 11.1386465,18.696045 C11.1386465,19.198995 11.0326173,19.652595 10.8204034,20.056695 L10.8204034,20.056695 Z M-1.55696202e-05,33.000045 L34.253149,33.000045 L34.253149,4.5e-05 L-1.55696202e-05,4.5e-05 L-1.55696202e-05,33.000045 Z" id="Fill-5" fill="#FEFEFE" mask="url(#mask-2)"></path>
                </g>
                <path d="M38.1298287,17.49696 C38.1298287,17.95296 38.2042515,18.37926 38.3530971,18.77661 C38.501787,19.17366 38.7127553,19.51791 38.9860022,19.80936 C39.2590933,20.10081 39.5921275,20.33106 39.984949,20.50026 C40.3776148,20.66946 40.8202591,20.75391 41.3130376,20.75391 C41.8301047,20.75391 42.28863,20.66946 42.6887692,20.50026 C43.0887528,20.33106 43.4241224,20.09961 43.6950338,19.80576 C43.9656338,19.51206 44.17053,19.16661 44.3095667,18.76956 C44.4486034,18.37221 44.5181996,17.94816 44.5181996,17.49696 L44.5181996,11.61726 C44.5181996,11.53266 44.5512072,11.45976 44.6170667,11.39871 C44.6827705,11.33766 44.764511,11.30706 44.8621325,11.30706 L45.4182794,11.30706 C45.5109186,11.30706 45.5963958,11.33526 45.6743996,11.39166 C45.7524034,11.44806 45.7914832,11.52321 45.7914832,11.61726 L45.7914832,17.63796 C45.7914832,18.28656 45.6743996,18.87531 45.4402325,19.40391 C45.2060654,19.93281 44.8851756,20.38506 44.4778743,20.76111 C44.070573,21.13716 43.5949211,21.42846 43.0509186,21.63516 C42.5069161,21.84201 41.9277262,21.94551 41.3130376,21.94551 C40.698349,21.94551 40.120249,21.83271 39.5787376,21.60711 C39.0372262,21.38151 38.5626642,21.07236 38.1555186,20.67996 C37.7480616,20.28756 37.4273275,19.83051 37.1931604,19.30881 C36.9589933,18.78711 36.8419097,18.23016 36.8419097,17.63796 L36.8419097,11.61726 C36.8419097,11.54676 36.8699351,11.47746 36.9261414,11.40936 C36.9820363,11.34111 37.0564591,11.30706 37.1492541,11.30706 L37.7858958,11.30706 C37.859073,11.30706 37.9347414,11.33766 38.0127452,11.39871 C38.090749,11.45976 38.1298287,11.53266 38.1298287,11.61726 L38.1298287,17.49696 Z" id="Fill-8" fill="#FEFEFE"></path>
                <path d="M56.2119497,21.77628 C56.1045194,21.77628 56.0143713,21.73158 55.9411941,21.64233 L49.267432,13.20348 L49.267432,21.46608 C49.267432,21.67308 49.1551751,21.77628 48.9308168,21.77628 L48.3234459,21.77628 C48.1087409,21.77628 48.0014662,21.67308 48.0014662,21.46608 L48.0014662,11.63133 C48.0014662,11.53743 48.0307371,11.45988 48.0892789,11.39868 C48.1478206,11.33763 48.2258244,11.30703 48.3234459,11.30703 L49.135713,11.30703 C49.2478143,11.30703 49.3406092,11.35413 49.4137865,11.44803 L55.9851004,19.68948 L55.9851004,11.58198 C55.9947535,11.49738 56.0277611,11.43033 56.0838118,11.38113 C56.1398624,11.33178 56.2142852,11.30703 56.3070801,11.30703 L56.9071333,11.30703 C56.9949459,11.30703 57.0754409,11.33523 57.1486181,11.39163 C57.2217953,11.44803 57.2583839,11.52318 57.2583839,11.61723 L57.2583839,21.46608 C57.2583839,21.67308 57.1413004,21.77628 56.9071333,21.77628 L56.2119497,21.77628 Z" id="Fill-10" fill="#FEFEFE"></path>
                <path d="M60.8512139,21.46602 C60.8512139,21.56937 60.821943,21.64707 60.7634013,21.69882 C60.7048595,21.75042 60.6243646,21.77622 60.5219165,21.77622 L59.9145456,21.77622 C59.6950139,21.77622 59.5852481,21.67302 59.5852481,21.46602 L59.5852481,11.61717 C59.5852481,11.52327 59.6132734,11.44797 59.6693241,11.39157 C59.7253747,11.33517 59.8071152,11.30697 59.9145456,11.30697 L60.5219165,11.30697 C60.6193823,11.30697 60.6986316,11.33517 60.7598203,11.39157 C60.8206975,11.44797 60.8512139,11.52327 60.8512139,11.61717 L60.8512139,21.46602 Z" id="Fill-12" fill="#FEFEFE"></path>
                <path d="M63.7633713,11.59605 C63.8561662,11.82165 63.9671776,12.08955 64.0964054,12.39975 C64.2256333,12.70995 64.3673168,13.04835 64.5208333,13.41495 C64.6745054,13.78155 64.8365852,14.16705 65.0073839,14.57115 C65.1783384,14.9754 65.3500713,15.3819 65.5235168,15.7908 C65.6964953,16.1997 65.8685396,16.60275 66.0391827,16.99995 C66.2101371,17.39715 66.3709713,17.77305 66.5221523,18.12795 C66.673489,18.4827 66.8112801,18.8058 66.9356814,19.0974 C67.0600827,19.3887 67.1661118,19.6356 67.2540801,19.8375 C67.3367548,19.6356 67.4407599,19.3887 67.5651611,19.0974 C67.6895624,18.8058 67.8273535,18.4827 67.9783789,18.12795 C68.1295599,17.77305 68.2882143,17.39715 68.4540308,16.99995 C68.6200029,16.60275 68.7894004,16.19865 68.9628459,15.78735 C69.1358244,15.37605 69.3078687,14.96835 69.4785118,14.5641 C69.6494662,14.16 69.8103004,13.7745 69.9617928,13.4079 C70.1128181,13.0413 70.2541903,12.70185 70.3859092,12.38925 C70.5176282,12.07665 70.6298852,11.80755 70.7225244,11.58195 C70.7566219,11.50215 70.8067561,11.43645 70.8727713,11.38455 C70.9384751,11.33295 71.0227067,11.307 71.1251548,11.307 L71.7616409,11.307 C71.9763459,11.307 72.0836206,11.38695 72.0836206,11.5467 C72.0836206,11.57025 72.0787941,11.6031 72.0691409,11.6454 C72.059332,11.6877 72.0520143,11.7114 72.0471877,11.7159 L67.8468156,21.49425 C67.8370067,21.51795 67.8248624,21.546 67.810227,21.57885 C67.7955915,21.6117 67.7747282,21.64245 67.7479485,21.6705 C67.7211687,21.69885 67.6858257,21.72345 67.6417637,21.74445 C67.598013,21.76575 67.5393156,21.77625 67.4662941,21.77625 L67.0418662,21.77625 C66.9392624,21.77625 66.8575219,21.74445 66.7966447,21.681 C66.7356118,21.6177 66.692951,21.56025 66.6686624,21.50835 L62.5120409,11.8851 C62.4974054,11.8569 62.4779434,11.81115 62.4536548,11.7477 C62.4290548,11.68425 62.4144194,11.61255 62.4099042,11.5326 C62.4099042,11.3823 62.514532,11.307 62.7242548,11.307 L63.36837,11.307 C63.4659915,11.307 63.5486662,11.33295 63.6171725,11.38455 C63.6855232,11.43645 63.7342561,11.5068 63.7633713,11.59605" id="Fill-14" fill="#FEFEFE"></path>
                <path d="M81.0991781,11.30703 C81.3185541,11.30703 81.4283199,11.41743 81.4283199,11.63838 L81.4283199,12.20943 C81.4283199,12.29403 81.3992047,12.36933 81.3406629,12.43503 C81.2821211,12.50088 81.1966439,12.53373 81.084387,12.53373 L75.0035161,12.53373 L75.0035161,15.64983 L79.8403743,15.64983 C79.928187,15.64983 80.0038553,15.67578 80.0672237,15.72738 C80.130592,15.77913 80.1623541,15.86133 80.1623541,15.97413 L80.1623541,16.55223 C80.1623541,16.63683 80.1355743,16.71213 80.0820148,16.77783 C80.0281439,16.84368 79.947649,16.87653 79.8403743,16.87653 L75.0035161,16.87653 L75.0035161,20.54958 L81.1502465,20.54958 C81.3697781,20.54958 81.4795439,20.66013 81.4795439,20.88093 L81.4795439,21.46608 C81.4795439,21.67293 81.3722692,21.77628 81.1577199,21.77628 L74.0593743,21.77628 C73.8446692,21.77628 73.7375503,21.67758 73.7375503,21.48018 L73.7375503,11.63133 C73.7375503,11.41518 73.8446692,11.30703 74.0593743,11.30703 L81.0991781,11.30703 Z" id="Fill-16" fill="#FEFEFE"></path>
                <path d="M89.8801948,14.62755 C89.8801948,14.34555 89.8239885,14.07765 89.7118872,13.82385 C89.5994746,13.57005 89.4459581,13.34565 89.2508708,13.15065 C89.0556277,12.95565 88.8239518,12.80055 88.5555315,12.68535 C88.2874227,12.57015 87.9995404,12.51255 87.6920404,12.51255 L84.4065391,12.51255 L84.4065391,16.7355 L87.7141492,16.7355 C88.0214935,16.7355 88.3068847,16.6791 88.5703227,16.5663 C88.8336049,16.4535 89.0616999,16.3008 89.2544518,16.10805 C89.4472037,15.91545 89.5994746,15.69105 89.7118872,15.43485 C89.8239885,15.17865 89.8801948,14.90955 89.8801948,14.62755 L89.8801948,14.62755 Z M83.1405733,11.6454 C83.1405733,11.5374 83.1696885,11.454 83.2282303,11.3952 C83.286772,11.3364 83.3647758,11.307 83.4623973,11.307 L87.6920404,11.307 C88.1751657,11.307 88.6251277,11.394 89.0422378,11.56785 C89.459348,11.74185 89.8227429,11.98035 90.1325784,12.2835 C90.4422581,12.58665 90.6862341,12.94035 90.8643505,13.34445 C91.042467,13.74885 91.1315252,14.17875 91.1315252,14.6346 C91.1315252,14.96835 91.0826366,15.288 90.9851708,15.5934 C90.8875492,15.8991 90.7510037,16.18215 90.5753784,16.443 C90.399753,16.70385 90.1898746,16.9365 89.9460543,17.14095 C89.7019227,17.3454 89.431167,17.5134 89.1337872,17.64495 L91.0581923,21.46605 C91.0826366,21.52245 91.0949366,21.56475 91.0949366,21.5931 C91.0949366,21.6447 91.0715822,21.68805 91.0253404,21.72345 C90.9789429,21.7587 90.914329,21.77625 90.8313429,21.77625 L90.092253,21.77625 C89.9946315,21.77625 89.9178733,21.75285 89.8618227,21.70575 C89.8056163,21.6588 89.758129,21.5931 89.7192049,21.50835 L87.9483163,17.9199 C87.8944454,17.92935 87.8385505,17.9352 87.7800087,17.9376 C87.721467,17.94 87.6433075,17.94105 87.5458416,17.94105 L84.4065391,17.94105 L84.4065391,21.46605 C84.4065391,21.67305 84.2991087,21.77625 84.0844037,21.77625 L83.4623973,21.77625 C83.2476923,21.77625 83.1405733,21.67305 83.1405733,21.46605 L83.1405733,11.6454 Z" id="Fill-18" fill="#FEFEFE"></path>
                <path d="M99.1076237,13.478445 C98.9905401,13.379745 98.8443414,13.264545 98.6687161,13.132995 C98.4930908,13.001445 98.2930211,12.876795 98.0685072,12.759345 C97.844149,12.641895 97.5976819,12.541995 97.3294173,12.459645 C97.0609971,12.377595 96.7732705,12.336345 96.4659262,12.336345 C96.0513072,12.336345 95.6950743,12.385695 95.3975389,12.484395 C95.1000034,12.583095 94.8549376,12.713445 94.66203,12.875595 C94.4694338,13.037745 94.3279059,13.219995 94.2377578,13.422045 C94.1474541,13.624095 94.1024578,13.826295 94.1024578,14.028345 C94.1024578,14.268045 94.1792161,14.475945 94.3328882,14.652195 C94.4864047,14.828445 94.6864743,14.981295 94.9329414,15.110445 C95.1792528,15.239895 95.4573262,15.351345 95.7671616,15.445395 C96.0768414,15.539445 96.3902578,15.628695 96.707411,15.713295 C96.9952933,15.788445 97.2915832,15.868395 97.596592,15.952995 C97.9014452,16.037595 98.1977351,16.132695 98.4856173,16.238445 C98.7734996,16.344195 99.0442553,16.467645 99.2980401,16.608645 C99.5516692,16.749645 99.7735363,16.916445 99.9637971,17.109195 C100.154214,17.301945 100.304149,17.524095 100.413915,17.775345 C100.523681,18.026895 100.578486,18.317145 100.578486,18.646095 C100.578486,19.149045 100.472457,19.602645 100.260087,20.006745 C100.048029,20.410995 99.7564097,20.753895 99.3856971,21.036045 C99.0148287,21.318045 98.5807477,21.535395 98.0831427,21.688095 C97.5856933,21.840945 97.0513439,21.917295 96.4805616,21.917295 C96.1001958,21.917295 95.7268363,21.879495 95.3611059,21.804495 C94.9950642,21.729345 94.6438135,21.616545 94.3071984,21.465945 C93.9705832,21.315795 93.6548313,21.128745 93.3596313,20.905545 C93.0644313,20.682495 92.7997477,20.425095 92.5655806,20.133645 C92.4874211,20.034795 92.4484971,19.950345 92.4484971,19.879845 C92.4484971,19.799895 92.4925591,19.724745 92.5802161,19.654095 L93.0485503,19.280445 C93.0826477,19.257045 93.1204819,19.238295 93.1618971,19.224195 C93.2033123,19.210095 93.2411465,19.203195 93.2753996,19.203195 C93.3094971,19.203195 93.3425047,19.212495 93.3742667,19.231245 C93.405873,19.249995 93.4363895,19.272345 93.4658161,19.298145 C93.4949313,19.324095 93.521711,19.348695 93.5461553,19.372245 C93.5705996,19.395795 93.5875705,19.412145 93.5973794,19.421595 C93.8119287,19.637745 94.052168,19.827045 94.3180971,19.989195 C94.5840262,20.151195 94.8497996,20.287545 95.1157287,20.397945 C95.3816578,20.508495 95.6377781,20.591745 95.8842452,20.648295 C96.1305566,20.704695 96.3415249,20.732895 96.5171503,20.732895 C96.7222022,20.732895 96.9330148,20.715345 97.150211,20.679945 C97.3670958,20.644695 97.5794654,20.590845 97.7868528,20.517795 C97.9942401,20.445045 98.1904173,20.353395 98.3758515,20.242845 C98.56113,20.132595 98.7235211,20.003295 98.8625578,19.855095 C99.0014389,19.707045 99.1112047,19.539195 99.1918553,19.351095 C99.2723503,19.163145 99.3125199,18.956295 99.3125199,18.730545 C99.3125199,18.444045 99.2307794,18.201945 99.0674541,18.004545 C98.9038173,17.807145 98.6842857,17.639145 98.4088591,17.500395 C98.1331211,17.361945 97.8172135,17.243145 97.4611363,17.144445 C97.1050591,17.045745 96.7366819,16.949445 96.3561604,16.855395 C95.7562629,16.704945 95.2304768,16.542795 94.7792692,16.368945 C94.3279059,16.195095 93.9523667,15.996495 93.6523401,15.773145 C93.3523135,15.550095 93.1277996,15.299745 92.9791097,15.022395 C92.8302642,14.745045 92.7558414,14.427945 92.7558414,14.070645 C92.7558414,13.642995 92.8447439,13.250445 93.0230161,12.893295 C93.2009768,12.536145 93.4535161,12.228345 93.7803224,11.969745 C94.1071287,11.711295 94.5022857,11.511495 94.9657933,11.370495 C95.4293009,11.229495 95.946368,11.158995 96.5171503,11.158995 C96.8098591,11.158995 97.1098857,11.191845 97.4173857,11.257695 C97.7245743,11.323545 98.0221097,11.416245 98.309992,11.536095 C98.5978743,11.656095 98.8734566,11.797095 99.1368946,11.959245 C99.4003325,12.121245 99.6344996,12.301095 99.8393958,12.498495 C99.9027642,12.559695 99.9662882,12.625395 100.029657,12.695895 C100.093025,12.766395 100.124787,12.832245 100.124787,12.893295 C100.124787,12.963795 100.085707,13.036695 100.007703,13.111845 L99.5686401,13.520745 C99.5002895,13.586595 99.43443,13.619445 99.3710616,13.619445 C99.2929022,13.619445 99.2052452,13.572495 99.1076237,13.478445" id="Fill-20" fill="#FEFEFE"></path>
                <path d="M103.615371,21.46602 C103.615371,21.56937 103.5861,21.64707 103.527559,21.69882 C103.469017,21.75042 103.388522,21.77622 103.286074,21.77622 L102.678547,21.77622 C102.459171,21.77622 102.349405,21.67302 102.349405,21.46602 L102.349405,11.61717 C102.349405,11.52327 102.377431,11.44797 102.433481,11.39157 C102.489688,11.33517 102.571273,11.30697 102.678547,11.30697 L103.286074,11.30697 C103.383695,11.30697 103.462945,11.33517 103.523822,11.39157 C103.584855,11.44797 103.615371,11.52327 103.615371,11.61717 L103.615371,21.46602 Z" id="Fill-22" fill="#FEFEFE"></path>
                <path d="M112.974628,11.30703 C113.062441,11.30703 113.140289,11.33283 113.208795,11.38458 C113.27699,11.43633 113.315914,11.51388 113.325879,11.61723 L113.325879,12.19533 C113.325879,12.28938 113.295362,12.36933 113.234485,12.43503 C113.173296,12.50088 113.086885,12.53373 112.974628,12.53373 L109.849961,12.53373 L109.849961,21.45903 C109.849961,21.54828 109.82178,21.62358 109.765885,21.68463 C109.709679,21.74583 109.625447,21.77628 109.513346,21.77628 L108.92061,21.77628 C108.822989,21.77628 108.742338,21.74703 108.679126,21.68808 C108.615602,21.62943 108.583995,21.55308 108.583995,21.45903 L108.583995,12.53373 L105.444693,12.53373 C105.347071,12.53373 105.267822,12.50673 105.206789,12.45258 C105.145912,12.39858 105.115395,12.31293 105.115395,12.19533 L105.115395,11.61723 C105.115395,11.52318 105.145912,11.44803 105.206789,11.39163 C105.267822,11.33523 105.347071,11.30703 105.444693,11.30703 L112.974628,11.30703 Z" id="Fill-24" fill="#FEFEFE"></path>
                <path d="M114.401428,11.66658 C114.33806,11.57733 114.306453,11.50683 114.306453,11.45508 C114.306453,11.35638 114.379475,11.30703 114.525985,11.30703 L115.477133,11.30703 C115.526022,11.31183 115.565102,11.31648 115.594217,11.32113 C115.623643,11.32593 115.650267,11.33868 115.674867,11.35998 C115.699156,11.38113 115.72469,11.41038 115.751626,11.44803 C115.778405,11.48568 115.813748,11.53743 115.85781,11.60313 L118.572529,15.91068 L121.331466,11.54673 C121.390008,11.45283 121.442322,11.39163 121.488719,11.36343 C121.534961,11.33523 121.594748,11.31648 121.667926,11.30703 L122.670453,11.30703 C122.787537,11.30703 122.846079,11.34933 122.846079,11.43393 C122.846079,11.45283 122.839851,11.47968 122.827862,11.51493 C122.815562,11.55033 122.794855,11.58663 122.765739,11.62428 C122.165531,12.55488 121.575286,13.47738 120.994851,14.39148 C120.414104,15.30558 119.819033,16.22793 119.209171,17.15853 L119.209171,21.44493 C119.209171,21.66588 119.099561,21.77628 118.880029,21.77628 L118.250705,21.77628 C118.045653,21.77628 117.943205,21.66588 117.943205,21.44493 L117.943205,17.20083 L114.401428,11.66658 Z" id="Fill-26" fill="#FEFEFE"></path>
            </g>
        </g>
    </g>
</svg>